Coordinates
version=1
nRows=13
nColumns=22
inDegrees=yes

Units are S.I. units (second, meters, Newtons, ...)
If the header above contains a line with 'inDegrees', this indicates whether rotational values are in degrees (yes) or radians (no).

endheader
time	pelvis_tilt	pelvis_list	pelvis_rotation	pelvis_tx	pelvis_ty	pelvis_tz	hip_flexion_r	hip_adduction_r	hip_rotation_r	knee_angle_r	ankle_angle_r	subtalar_angle_r	hip_flexion_l	hip_adduction_l	hip_rotation_l	knee_angle_l	ankle_angle_l	subtalar_angle_l	lumbar_extension	lumbar_bending	lumbar_rotation
      1.75000000	     -1.84596183	     -2.46937357	     20.56645609	      0.49788080	      0.92699865	      0.98855378	      7.86568958	     -2.73992618	     -1.33842150	    -60.22278154	     -3.64124555	      8.36703900	     27.75784213	      2.09467010	     -6.54922179	    -32.42028442	      5.47064384	    -13.13146325	     -6.39016024	     -0.81667059	      2.67601672
      1.76000000	     -1.63376645	     -2.42051953	     21.44786339	      0.50461303	      0.92793555	      0.98195644	      9.21903124	     -2.47293294	     -1.04782415	    -62.14738643	     -2.68455614	      8.21533852	     26.91129640	      2.61768047	     -5.94668569	    -32.30486808	      5.97545618	    -13.45933683	     -6.59862935	     -0.78774499	      2.24384986
      1.77000000	     -1.44251509	     -2.38416880	     22.36917253	      0.51125480	      0.92893028	      0.97530264	     10.58711999	     -2.20813145	     -0.83646221	    -63.84207632	     -1.64241751	      8.06493616	     26.04070949	      3.14126317	     -5.27442886	    -32.10804356	      6.43347205	    -13.79341083	     -6.76124930	     -0.73512972	      1.77649425
      1.78000000	     -1.27276869	     -2.35195219	     23.32665908	      0.51782309	      0.92998268	      0.96856043	     11.96063642	     -1.97071858	     -0.69742414	    -65.30194794	     -0.55360192	      7.91605433	     25.13857933	      3.67042723	     -4.53973314	    -31.82660001	      6.85135648	    -14.11826971	     -6.87546794	     -0.66870994	      1.27563057
      1.79000000	     -1.12972449	     -2.32115567	     24.31851586	      0.52429549	      0.93107442	      0.96171899	     13.34292922	     -1.77201323	     -0.61460360	    -66.53132827	      0.53433166	      7.74058924	     24.21721677	      4.20881613	     -3.74254515	    -31.47564085	      7.21553353	    -14.45696036	     -6.93991501	     -0.59334243	      0.74987697
      1.80000000	     -1.00383346	     -2.28240736	     25.32848295	      0.53071661	      0.93221970	      0.95478914	     14.70776911	     -1.61993605	     -0.56185270	    -67.52372241	      1.62342877	      7.52678734	     23.25154004	      4.74489777	     -2.91901687	    -31.04113155	      7.55147363	    -14.77747581	     -6.96533629	     -0.52092915	      0.20665889
      1.81000000	     -0.89312544	     -2.23772985	     26.35414059	      0.53703129	      0.93338594	      0.94779535	     16.05657793	     -1.50808808	     -0.52279715	    -68.28816912	      2.66666692	      7.19347323	     22.26085071	      5.27921724	     -2.04626976	    -30.55676913	      7.83867801	    -15.14372303	     -6.96770278	     -0.44976996	     -0.33537079
      1.82000000	     -0.78436935	     -2.18480500	     27.37322033	      0.54332991	      0.93460633	      0.94076647	     17.35285034	     -1.42185512	     -0.47051732	    -68.80425075	      3.66909622	      6.71699766	     21.20956529	      5.77931877	     -1.20683045	    -29.98784630	      8.12400257	    -15.52136735	     -6.95371687	     -0.38133323	     -0.88152452
      1.83000000	     -0.68759696	     -2.11035878	     28.36877620	      0.54956055	      0.93582582	      0.93377316	     18.61258548	     -1.35934707	     -0.35445702	    -69.10217618	      4.66704284	      6.45460900	     20.13043100	      6.26229845	     -0.38630783	    -29.38008183	      8.42114328	    -15.73089867	     -6.93845792	     -0.34008669	     -1.40811973
      1.84000000	     -0.54829118	     -2.05342071	     29.37422656	      0.55572563	      0.93712770	      0.92676680	     19.77125255	     -1.26913174	     -0.25032369	    -69.13317430	      5.47396781	      5.76969131	     18.97257745	      6.68326169	      0.49544575	    -28.70183627	      8.62113994	    -16.12202517	     -6.95886492	     -0.25139312	     -1.92134866
      1.85000000	     -0.44559183	     -1.99997610	     30.34372822	      0.56180487	      0.93830394	      0.91988287	     20.92988903	     -1.16838406	     -0.05008803	    -68.96748606	      6.28467436	      5.51274710	     17.85974649	      7.06721265	      1.32555429	    -28.03676816	      8.89472277	    -16.31195084	     -6.95270878	     -0.18478225	     -2.42591029
      1.86000000	     -0.26163444	     -1.96690514	     31.31887212	      0.56783756	      0.93958185	      0.91302658	     21.93944932	     -1.00529640	      0.14223315	    -68.53366216	      6.90596228	      5.05113602	     16.64884202	      7.36061354	      2.22148394	    -27.32086745	      9.07090784	    -16.59611441	     -7.02462287	     -0.05003448	     -2.90180513
      1.87000000	     -0.11487587	     -1.94118480	     32.25465726	      0.57379059	      0.94065083	      0.90634233	     22.94774291	     -0.81142124	      0.44218740	    -67.92442148	      7.53122365	      4.78890456	     15.51660787	      7.61933459	      3.06971930	    -26.66856947	      9.38070898	    -16.82596469	     -7.07499288	      0.06292711	     -3.37715096
